<svg width="16" height="15" viewBox="0 0 16 15" fill="none" xmlns="http://www.w3.org/2000/svg">
<g id="Component 1">
<path id="Vector" d="M13.2256 7.61386L10.0439 4.43208C9.9296 4.29862 9.72873 4.28306 9.59527 4.39739C9.46181 4.51168 9.44625 4.71254 9.56057 4.84601C9.57124 4.85845 9.58283 4.87007 9.59527 4.88071L12.2329 7.52157H3.81817C3.64246 7.52157 3.5 7.66403 3.5 7.83977C3.5 8.0155 3.64246 8.15793 3.81817 8.15793H12.2329L9.59527 10.7956C9.46181 10.9099 9.44625 11.1108 9.56057 11.2442C9.6749 11.3777 9.87573 11.3932 10.0092 11.2789C10.0216 11.2683 10.0333 11.2567 10.0439 11.2442L13.2257 8.06245C13.349 7.93839 13.349 7.73797 13.2256 7.61386Z" fill="white"/>
</g>
</svg>
