<svg width="51" height="41" viewBox="0 0 51 41" fill="none" xmlns="http://www.w3.org/2000/svg">
<path id="Vector" d="M48.6094 22.9426L48.4525 22.5325C49.3371 22.256 50.207 21.9857 50.9999 21.7364L50.4881 20.3283C49.8342 20.5023 49.2323 20.6631 48.7119 20.806L48.5535 20.3672C48.6824 20.2794 48.743 20.2134 49.1647 20.1458C49.5429 19.9936 49.1748 20.072 48.5108 20.2491L48.0308 18.9195C48.2226 18.8744 48.4145 18.8294 48.6063 18.7843C48.6024 18.7727 48.5985 18.7618 48.5946 18.7509C48.4012 18.8006 48.2094 18.8496 48.023 18.8969L47.9516 18.6981C48.1154 18.6616 48.3049 18.6181 48.5286 18.5661C48.5154 18.5304 48.503 18.4954 48.4906 18.4597C48.4906 18.4597 48.4805 18.4263 48.4812 18.4255C48.4937 18.4612 48.5077 18.4985 48.5092 18.4985C48.5115 18.4985 48.5139 18.4977 48.5162 18.497C48.5146 18.497 48.5014 18.4597 48.4882 18.424C48.51 18.417 48.5372 18.4271 48.5589 18.4201L47.9345 16.6866C47.912 16.692 47.891 16.7013 47.8685 16.7068C47.8553 16.671 47.8436 16.6384 47.8304 16.6019C47.8281 16.6019 47.8149 16.5693 47.8125 16.5701C47.8257 16.6058 47.839 16.6431 47.8405 16.6431H47.8397C47.8397 16.6431 47.825 16.6066 47.8118 16.5716C47.3947 16.6951 46.8037 16.8924 45.9796 17.1433C45.6247 17.2264 45.2744 17.3164 44.9234 17.3957C45.0795 17.2893 46.441 16.8396 47.7551 16.4171C47.7504 16.4047 47.7473 16.3946 47.7426 16.3829L42.4823 17.937C42.2245 17.9906 41.9674 18.0434 41.7119 18.0947C40.8552 18.3284 40.0871 18.5257 39.3742 18.6989C40.7721 18.2632 42.2959 17.7778 45.4647 16.7138C45.4903 16.7076 45.516 16.7013 45.5424 16.6943L45.248 16.96C46.2204 16.6749 47.39 16.3014 48.5675 15.9239C48.9511 15.8253 49.3231 15.7282 49.6812 15.6342C49.6742 15.614 49.6664 15.5938 49.6602 15.5736C49.6703 15.5705 49.6804 15.5666 49.6913 15.5635L49.3185 14.5088C49.3076 14.5119 49.2975 14.5143 49.2866 14.5174C49.2796 14.4964 49.2719 14.4754 49.2649 14.4552C48.7935 14.602 48.3445 14.7434 47.9228 14.877C47.2557 15.0502 46.6351 15.2047 46.1016 15.3251C46.0853 15.2746 46.0682 15.2241 46.0511 15.1736C46.062 15.1713 46.0736 15.1682 46.0853 15.1659L45.7257 14.0801C45.714 14.0824 45.7024 14.0848 45.6915 14.0863C45.6697 14.0203 45.6472 13.9543 45.6263 13.8883L36.3421 16.2159C35.4482 16.3379 35.24 16.3161 38.2814 15.6024L39.3004 15.4261L39.5978 15.287C38.9315 15.3585 37.956 15.5721 36.0011 15.9985L38.0531 15.6428C36.2761 16.0264 32.938 16.7441 29.6706 17.4671C28.6268 17.6411 27.6078 17.8042 26.8894 17.9028C28.8466 17.339 32.2988 16.5608 35.8901 15.6699C37.1265 15.4501 39.5287 14.8816 42.3278 14.2448L42.1367 14.5842C46.1295 13.6087 46.1148 13.4782 48.1473 12.8973C48.1162 12.8041 48.0844 12.7101 48.0525 12.6146C48.0688 12.6115 48.0851 12.6084 48.1015 12.6052L47.6588 11.2787C48.2886 11.1335 48.9216 10.9882 49.5484 10.8438C49.4699 10.61 49.3915 10.377 49.3138 10.144C49.3301 10.1394 49.3472 10.1347 49.3635 10.1293L48.9395 8.86253C48.9224 8.86642 48.9061 8.8703 48.889 8.87496C48.8105 8.64041 48.7321 8.40664 48.6544 8.17364C47.2976 8.54799 45.9695 8.91612 44.768 9.25785L44.3619 8.00122C44.3448 8.00433 44.3277 8.00821 44.3106 8.01131C44.2989 7.97559 44.2873 7.93986 44.2756 7.90414C44.2725 7.90491 44.2694 7.90569 44.2663 7.90647C43.8702 8.02452 43.4664 8.1449 43.0361 8.27227C42.9188 8.29635 42.7953 8.30023 42.6781 8.32353C42.6812 8.33363 42.6812 8.33285 42.6812 8.33285C42.6812 8.33285 42.6812 8.33285 42.6781 8.32353C42.1996 8.42061 41.7259 8.52779 41.2498 8.6241C41.183 8.58449 41.656 8.42294 41.5084 8.39265C41.5768 8.36935 41.6498 8.34761 41.7259 8.32198C42.014 8.24664 42.2967 8.25752 42.5849 8.18451C42.5825 8.15655 42.5802 8.13247 42.5794 8.12859L42.5771 8.06568C42.5717 8.05015 42.5662 8.0051 42.5662 8.0051V7.98879C42.5662 7.98879 42.588 8.04937 42.5926 8.0649C42.612 8.05947 42.6377 8.06956 42.6571 8.0649L42.6664 8.01986C43.0889 7.89016 43.5782 7.75424 44.2073 7.57483C44.2073 7.57483 44.2073 7.57328 44.2073 7.5725L42.6649 8.01131L42.1336 6.40752C42.1134 6.4114 42.08 6.39043 42.0598 6.39432C42.0699 6.42616 42.0529 6.39043 42.0762 6.46188C42.0762 6.46188 42.0762 6.46188 42.0754 6.46188C42.0521 6.38966 42.0637 6.42616 42.0536 6.39509C38.822 7.07078 35.6198 7.75657 32.434 8.42605C34.0393 8.01442 35.8295 7.55154 37.7121 7.04981C38.3723 6.89526 39.0084 6.7508 39.6204 6.60867C39.6142 6.58848 39.6079 6.56984 39.6009 6.54965C39.6165 6.54576 39.6328 6.54188 39.6475 6.538L39.319 5.53223C40.4941 5.29146 41.663 5.05147 42.8217 4.81149C42.8062 4.75867 42.7899 4.70586 42.7736 4.65227C42.7868 4.64916 42.8008 4.64528 42.8148 4.64218L42.3565 3.1308C42.3425 3.13391 42.3286 3.13624 42.3154 3.13934C42.2991 3.08653 42.2827 3.03294 42.2672 2.98013C41.1892 3.24963 40.1198 3.51835 39.0619 3.78552C35.0723 4.57072 30.914 5.36524 26.6564 6.18928C29.2753 5.47786 31.8996 4.75945 34.5278 4.03794C35.8909 3.74358 37.3261 3.43214 38.8522 3.09973L37.7362 3.15565C37.8558 3.12303 37.9746 3.09041 38.0942 3.05702C38.3863 2.99489 38.641 2.94052 38.8321 2.89936C38.8274 2.88538 38.8227 2.8714 38.8181 2.85742C38.8313 2.85353 38.8437 2.85043 38.8569 2.84654L38.3816 1.42371C38.3684 1.42681 38.3552 1.42992 38.342 1.43303C38.3373 1.41827 38.3327 1.40429 38.328 1.39109C37.5032 1.60389 36.8733 1.76155 36.3475 1.88892C30.8667 3.14167 25.371 4.39986 19.8692 5.64406C20.0393 5.59125 20.2094 5.53844 20.3794 5.48563C20.1294 5.55863 19.9072 5.62309 19.7123 5.67979C19.3613 5.75901 19.0102 5.83823 18.6592 5.91745C19.0972 5.74192 20.4307 5.28603 21.8598 4.79984C20.054 5.3699 21.8202 4.6049 21.4233 4.62353L29.4081 2.15454L28.8683 0.701416L25.4534 1.34526C23.4271 2.10095 13.03 4.12104 11.9015 4.66392L15.5587 3.80028C12.1073 4.81459 17.3008 3.9525 20.2435 3.60767C17.9501 4.36413 15.6084 5.19516 13.3119 6.13025C11.371 6.691 14.8792 5.45223 13.819 5.70387C11.7081 6.61333 9.08298 7.54066 4.15431 9.11572L4.68865 8.88661C4.30498 9.01709 3.92907 9.14524 3.61453 9.25241C3.5291 9.27105 3.44367 9.28969 3.35746 9.30833C3.36057 9.31765 3.36445 9.32697 3.36756 9.33629C3.33882 9.34639 3.30931 9.35649 3.28213 9.36503L3.69375 10.4702C3.16252 10.5999 2.59167 10.7451 1.98744 10.9028L2.64682 12.9679C2.44877 12.9742 1.40183 13.1893 0.536635 13.3586L1.01817 14.9096C2.1948 14.7131 3.05223 14.5873 1.27835 15.0284C12.8381 12.3497 6.97978 13.6467 14.5468 11.6437L14.6912 11.6267C12.2696 12.2651 9.89381 13.0231 7.14289 13.7477L5.29755 14.1562L6.07421 14.0226C5.55695 14.1523 5.02649 14.2797 4.47895 14.4048C4.3376 14.4607 4.19237 14.515 4.03781 14.571L4.59856 16.285C6.46176 15.7235 8.72183 15.3492 9.92953 14.9904C9.49461 15.1333 9.02861 15.2839 8.51834 15.4439C7.81392 15.6109 7.14444 15.7756 6.52699 15.9356L6.47185 15.8291C3.13067 16.678 1.52765 17.1301 0.676437 17.4081L1.21932 19.0802C0.830991 19.1773 0.441884 19.2752 0.052002 19.3738L0.835656 21.7465C2.17073 21.4599 3.52055 21.1648 4.90611 20.8541L5.41327 22.3771C6.82446 21.9678 9.22122 21.3186 10.5151 20.9753C13.127 20.4798 9.23676 21.3294 9.92099 21.2533L11.319 20.9015C10.8374 21.0778 10.7908 21.143 10.5625 21.2564C10.1501 21.3504 9.73693 21.4428 9.33073 21.5314C9.61188 21.5011 9.87595 21.47 10.126 21.4389C9.6779 21.6044 8.86396 21.8653 7.22288 22.3406C6.64039 22.6482 4.39352 23.1818 1.51523 23.8683L1.94239 25.1498C3.59745 24.8361 5.45987 24.4827 7.33705 24.0943C7.59412 24.1169 7.25007 24.273 6.51224 24.5161C5.51035 24.7475 4.52167 24.9743 3.55007 25.1956C3.57182 25.2585 3.59278 25.3199 3.61375 25.382C3.60598 25.3844 3.59745 25.3867 3.58968 25.389L4.0083 26.6161C4.01684 26.6138 4.0246 26.6123 4.03237 26.6099C4.05334 26.6721 4.07509 26.735 4.09606 26.7971C5.86684 26.3404 7.56461 25.9086 9.17617 25.5063C8.54785 25.57 8.44379 25.542 8.68688 25.4527C9.94351 25.1413 11.1675 24.8368 12.2168 24.5658C12.6206 24.4695 13.0323 24.3716 13.4361 24.2737C13.5775 24.3864 12.3209 24.826 7.03104 26.0601C12.5189 25.0489 14.4023 23.9576 18.8642 22.9115C18.9271 22.9301 18.646 23.042 17.7163 23.3348C17.9718 23.2618 18.2235 23.1903 18.4712 23.1204C18.4572 23.1258 18.4425 23.1305 18.4285 23.1367C20.2645 22.6156 23.6857 21.7978 25.8836 21.3139C26.1562 21.331 26.0638 21.4397 25.2592 21.6867C19.7395 22.9115 21.3448 22.6133 14.8287 24.1976C15.8057 23.9763 15.5083 24.2512 14.4582 24.7017C14.0256 24.7801 13.6117 24.8438 13.2272 24.8842C12.8839 25.0046 12.1415 25.2104 11.166 25.4675C11.1846 25.3696 11.3011 25.2554 11.6957 25.1094L9.35714 25.9366C8.44068 26.1719 7.44034 26.4274 6.43302 26.686C6.46253 26.7699 6.49283 26.8554 6.52234 26.9392L6.48506 26.9524L6.87028 28.0468L6.90911 28.0351C6.93552 28.1097 6.96193 28.1842 6.98833 28.2588C7.79062 28.0102 8.59757 27.7586 9.36646 27.5147C9.84488 27.5132 10.7776 27.4083 11.7337 27.2507C11.1124 27.3307 14.6337 26.5175 17.7528 25.7836C16.097 26.3272 14.5615 26.8779 12.8583 27.4402C10.2821 28.1019 7.63528 28.8001 4.67311 29.5869C4.69253 29.6389 4.71272 29.6933 4.73214 29.7461C4.7135 29.7507 4.69408 29.7554 4.67544 29.7601L5.22455 31.2528C4.62963 31.4066 4.0316 31.5611 3.43202 31.7172C3.47706 31.8415 3.52211 31.9665 3.56638 32.0908C3.55317 32.0947 3.54152 32.0978 3.52832 32.1017L3.99198 33.3917C4.00363 33.3886 4.01761 33.3855 4.03082 33.3824C4.07586 33.5067 4.12014 33.6317 4.16518 33.756C7.42093 32.7727 10.745 31.7576 14.1608 30.7511L14.459 30.6874C13.9363 30.8404 13.541 30.9755 13.3072 31.0928C13.8742 30.9445 14.4155 30.8016 14.9366 30.6625L15.2294 31.5697C14.4784 31.8865 13.1131 32.0753 12.4669 32.4085C12.3908 32.198 12.3279 32.0263 12.2533 31.812C12.3286 32.0263 12.4001 32.2259 12.4669 32.4092C12.2269 32.5335 12.091 32.6888 12.115 32.855H11.4223C11.6087 32.817 11.6242 32.768 11.8083 32.7323C10.4716 32.6624 11.0363 33.4818 9.53266 33.7824L10.2029 35.9811C10.2355 35.9764 10.2751 35.971 10.3155 35.9648C10.8988 35.9073 11.326 35.9399 10.9664 36.1139L12.1717 35.6564C12.4739 35.6067 12.4964 35.7007 12.2952 35.7698L14.028 35.3489L14.0202 35.3745C14.2594 35.1943 14.8271 34.8736 15.1075 34.7291C15.6279 34.7408 14.8862 34.8635 15.0392 34.9357L16.0496 34.5233C16.5412 34.6375 15.7149 35.0188 14.9716 35.1431C15.9517 35.6098 15.8912 35.0786 17.015 34.8604C17.0212 34.8775 17.0274 34.8938 17.0344 34.9101C17.0344 34.9101 17.0344 34.9101 17.0359 34.9101C17.0297 34.8938 17.0227 34.8767 17.0165 34.8604C17.1097 34.8425 17.2107 34.8262 17.321 34.813C17.2262 34.8456 17.1307 34.8782 17.0352 34.9101C17.0391 34.9194 17.0422 34.9295 17.046 34.9388L17.4887 34.7967C17.6619 34.7819 17.8561 34.7742 18.0751 34.7757L17.0981 35.0848C17.2472 35.1454 17.3948 35.1811 17.5454 35.2005C16.5552 35.453 15.5813 35.7007 14.6446 35.936C14.657 35.9702 14.6695 36.0036 14.6819 36.037C15.6449 35.7908 16.6531 35.5291 17.6697 35.2666C17.7458 35.4646 17.8227 35.6642 17.8996 35.8638C17.9842 35.8607 18.072 35.8584 18.1629 35.8553L17.9283 35.9391C17.919 35.9135 17.9089 35.8887 17.8996 35.8638C17.891 35.8638 17.8825 35.8638 17.874 35.8646C17.8848 35.8925 17.8949 35.9197 17.9058 35.9469L16.9218 36.2972C17.1563 36.2141 17.5058 36.1022 17.9167 35.9756C17.9415 36.0401 17.9656 36.103 17.9897 36.1644C17.0996 36.4331 16.1102 36.7469 15.0671 37.0839C15.0795 37.1173 15.092 37.1515 15.1044 37.1849C16.1311 36.8579 17.1136 36.5473 18.0285 36.2638C18.1388 36.5504 18.239 36.8113 18.3384 37.0715C18.3469 37.0707 18.3547 37.07 18.3633 37.0692C18.2584 36.7973 18.1551 36.5271 18.051 36.2568C18.1737 36.2187 18.2957 36.1807 18.4161 36.1442L18.4083 36.5527L18.6646 36.4789L18.5093 36.1147C18.6762 36.0634 18.8409 36.0129 19.0032 35.9632C19.2168 36.3585 19.3015 36.7702 19.164 36.9892C19.1096 36.9946 18.792 37.0265 18.364 37.0684C18.4782 37.3659 18.5931 37.6633 18.7073 37.9616C19.244 37.7589 19.8016 37.5189 20.447 37.2385L20.2746 37.0078C20.3585 36.9589 20.4517 36.9154 20.5495 36.8735C20.6303 36.875 20.7686 36.8478 21.0132 36.7678C21.0132 36.7453 21.0194 36.7236 21.0295 36.7034C21.9429 36.4339 23.1824 36.291 24.3295 35.9089C24.2659 36.0378 23.8698 36.1341 23.5731 36.1613C25.6258 36.1613 27.235 34.5443 29.0539 34.4425C29.4267 34.222 29.7366 34.1598 30.0504 34.1326C30.0131 34.1458 29.9805 34.1614 29.9541 34.1785C29.9968 34.1684 30.0605 34.1489 30.1242 34.1288C30.323 34.1156 30.5311 34.107 30.7494 34.0837C30.5521 34.0759 30.3665 34.0775 30.2143 34.0992C30.382 34.0433 30.5941 33.9649 30.8224 33.8725C30.8348 33.9074 30.8993 33.9408 31.0406 33.9719C31.0344 33.8779 31.2146 33.7575 31.4763 33.6255L31.7528 33.8096C31.7893 33.794 31.8212 33.7847 31.8584 33.7676C31.9384 33.7606 31.9982 33.749 32.0456 33.7358C31.961 33.7684 31.8763 33.8018 31.7909 33.8352L31.7528 33.8096C31.3622 33.9812 31.0375 34.0526 30.7494 34.0837C30.8667 34.0876 30.987 34.0954 31.1051 34.1023C24.2596 36.7725 16.8045 39.6454 15.4842 40.3381L22.77 37.4497C13.1985 41.5373 36.6955 32.8512 35.4629 33.801C36.7001 33.2721 38.0383 32.723 39.4627 32.1553C39.5023 32.1801 39.618 32.1801 39.8557 32.1382L39.9551 32.0652C40.4949 31.951 41.2094 31.9293 41.4463 31.9603C41.2109 31.8438 40.9896 31.7646 40.5865 31.7095C43.1907 30.6851 46.0596 29.5993 49.1266 28.4522L49.1919 28.5345C49.5359 28.4079 49.7876 28.2619 49.7309 28.2262C49.7697 28.2114 49.8093 28.1966 49.8489 28.1827C49.7418 28.0157 49.6346 27.8495 49.5266 27.6809C49.5903 27.6623 49.654 27.6437 49.7177 27.625L49.3177 26.474L49.6385 26.4593L49.6253 26.2154L49.2983 26.4165L49.0451 25.688C48.5659 25.7766 48.0875 25.8597 47.6184 25.9311L47.4281 25.4201C47.7302 25.3044 48.0316 25.1863 48.3329 25.0675C48.0316 25.1762 47.7279 25.2873 47.4211 25.4007L47.3124 25.1087C47.9749 24.9013 48.621 24.6986 49.2152 24.5122L48.6164 22.9464C49.0575 22.8136 49.5872 22.6544 50.2419 22.4571C49.6827 22.6249 49.1414 22.7841 48.6125 22.9379L48.6094 22.9426ZM39.5714 6.45256C39.573 6.45645 39.5745 6.46033 39.5753 6.46499C39.5738 6.46499 39.5722 6.46499 39.5707 6.46577C39.5691 6.46188 39.5683 6.458 39.5668 6.45412C39.5683 6.45412 39.5699 6.45334 39.5714 6.45256ZM39.5318 6.32675C39.5411 6.35626 39.5505 6.38422 39.559 6.40985C39.559 6.40985 39.559 6.40985 39.5575 6.40985C39.5497 6.38577 39.5411 6.36014 39.5303 6.32752C39.5303 6.32752 39.531 6.32752 39.5318 6.32752V6.32675ZM39.5303 6.32675C39.5396 6.35548 39.5489 6.38266 39.5575 6.40985C39.5559 6.40985 39.5543 6.40985 39.552 6.40985C39.5435 6.38266 39.5341 6.35548 39.5256 6.3283C39.5272 6.3283 39.5287 6.32752 39.5303 6.32675ZM38.7831 2.75956C38.7932 2.79062 38.8041 2.82169 38.8142 2.85353C38.8142 2.85353 38.8134 2.85353 38.8126 2.85353C38.8025 2.82247 38.7917 2.7914 38.7808 2.75956C38.7808 2.75956 38.7816 2.75956 38.7823 2.75956H38.7831ZM38.3428 1.44002C38.3536 1.47186 38.3637 1.50215 38.3738 1.53322C38.3738 1.53322 38.373 1.53322 38.3723 1.53322C38.3614 1.49982 38.3513 1.46875 38.3412 1.44002C38.3412 1.44002 38.342 1.44002 38.3428 1.44002ZM2.63439 12.905C3.05689 12.8522 3.3396 12.8289 3.5058 12.8274C3.24252 12.8926 2.97767 12.9571 2.71283 13.0223C2.47362 13.0806 2.31052 13.1209 2.10859 13.1699C2.39984 13.086 2.56838 13.0324 2.65847 12.9982L2.65614 12.9912C2.68953 12.9749 2.68488 12.9679 2.64915 12.9687L2.01617 10.9867C2.56294 10.8275 3.17649 10.6496 3.70151 10.4966L3.77996 10.7063C3.30231 10.8205 2.92642 10.9269 2.58158 11.031C2.38742 11.0698 2.21577 11.1024 2.06743 11.1288L2.63439 12.905ZM4.92165 10.4951L4.72671 10.5238C4.99621 10.4624 5.26337 10.4019 5.52666 10.3421C5.31774 10.3957 5.11504 10.4461 4.92165 10.4943V10.4951ZM4.52788 16.0528L4.12013 14.8063L4.16751 14.7931C4.17294 14.8086 4.17761 14.8234 4.18227 14.8381C4.16674 14.8428 4.15198 14.8475 4.13645 14.8521L4.51235 16.0008C4.52788 15.9969 4.54341 15.993 4.55895 15.9891C4.56516 16.007 4.57059 16.0249 4.57603 16.0427L4.52788 16.0536V16.0528ZM5.65015 14.3877C5.59812 14.3962 5.54997 14.4048 5.5057 14.4117L6.96969 13.9955C6.52778 14.1244 6.08896 14.2556 5.65015 14.3877ZM2.64216 18.7222C3.06 18.5638 3.72016 18.3673 5.87305 17.9098C4.78884 18.1848 3.7155 18.4535 2.64216 18.7222ZM6.57205 16.0272L6.54409 15.9736C6.74446 15.9363 6.95959 15.8944 7.18793 15.8478C6.9891 15.9068 6.78485 15.9666 6.57205 16.0272ZM15.0011 11.5894L15.0935 11.5785C14.824 11.6515 14.5491 11.7253 14.2687 11.8022C14.5949 11.7129 14.8062 11.6492 15.0019 11.5894H15.0011ZM13.4043 22.9029C12.202 23.1864 11.0036 23.4684 9.81691 23.7456C9.76255 23.7278 9.73226 23.7014 9.74002 23.6625C10.957 23.4435 12.4964 23.042 14.2586 22.5426C14.1833 22.6109 13.4959 22.8206 13.4043 22.9029ZM12.5274 20.5955L13.2894 20.4037L13.1395 20.4541C12.8047 20.5435 12.6199 20.5838 12.5274 20.5955ZM14.9856 17.7289C15.2333 17.6566 15.5378 17.5712 15.8943 17.4772L14.9856 17.7289ZM15.6356 13.4099C13.4338 13.8238 12.0871 14.2774 10.2759 14.8746C10.4577 14.8071 10.5975 14.7403 10.6837 14.6712L7.14055 15.4657C8.05235 15.1907 9.21423 14.8576 10.9112 14.3947C11.9807 14.1376 13.1138 13.8735 14.334 13.6032C14.511 13.5986 14.4753 13.6436 15.1681 13.4611C15.1681 13.4735 15.2908 13.4495 15.6302 13.3594C15.7894 13.3174 15.9976 13.26 16.2632 13.1862C16.3292 13.1722 16.396 13.1582 16.462 13.1442C16.3261 13.1955 16.0643 13.2802 15.6364 13.4083L15.6356 13.4099ZM17.1012 22.0269C18.5621 21.6618 19.6168 21.3986 20.5185 21.171C20.3134 21.2339 20.1068 21.2976 19.8987 21.3613C18.9706 21.5826 18.0371 21.8048 17.102 22.0269H17.1012ZM19.8164 22.7398C20.0439 22.6769 20.2676 22.6148 20.489 22.5542C20.6761 22.5169 20.8672 22.4789 21.0629 22.4416C20.5736 22.5604 20.1651 22.656 19.8164 22.7398ZM19.3605 25.271C19.2183 25.3145 19.077 25.358 18.9372 25.4015L17.8592 25.6236C18.3889 25.5016 18.8875 25.3844 19.3605 25.271ZM19.0265 25.4807C19.5958 25.3455 20.1255 25.2189 20.5814 25.1079C19.2673 25.518 18.1101 25.869 17.5617 26.0166C17.4841 26.0352 17.4072 26.0538 17.3311 26.0717L19.0265 25.4807ZM3.94151 33.255L3.57492 32.2368C3.58268 32.2345 3.59123 32.2314 3.599 32.229C3.63317 32.3238 3.67123 32.4302 3.71239 32.5451C3.71006 32.5451 3.70695 32.5467 3.70462 32.5475C3.71472 32.5754 3.72482 32.6042 3.73491 32.6321C3.73724 32.6321 3.74035 32.6306 3.74268 32.6298C3.76831 32.7013 3.79472 32.7743 3.8219 32.8496C3.81957 32.8504 3.81646 32.8512 3.81413 32.8519C3.82423 32.8799 3.83433 32.9079 3.84365 32.9358L3.85141 32.9335C3.88869 33.0376 3.92675 33.1432 3.9648 33.2496C3.95626 33.2519 3.94927 33.2542 3.94073 33.2566L3.94151 33.255ZM15.297 31.7933L15.3257 31.8819L14.9506 31.8858L15.2962 31.7926L15.297 31.7933ZM14.7355 32.2011C14.9553 32.1025 15.1611 32.052 15.3661 32.0054L15.391 32.083C15.2683 32.1211 15.1448 32.1576 15.0213 32.1949C14.9273 32.2003 14.8326 32.2026 14.7355 32.2019V32.2011ZM15.0423 32.1933C15.1572 32.1568 15.2737 32.1203 15.391 32.083L15.4135 32.1529C15.2931 32.1716 15.1689 32.1856 15.0423 32.1933ZM5.39463 32.831C5.31774 32.8488 5.23853 32.8675 5.15542 32.8877C5.03659 32.9358 4.5605 33.0764 3.97645 33.2449C3.9384 33.1393 3.90034 33.0344 3.86306 32.9288L8.52922 31.5114C9.04569 31.28 7.5716 31.659 5.5919 32.2671C5.03504 32.4504 4.34226 32.678 3.83277 32.8457C3.80637 32.7727 3.77996 32.6997 3.75355 32.6267C4.43157 32.431 4.81912 32.3067 4.35158 32.3805C4.14265 32.4349 3.93296 32.49 3.72326 32.542C3.68521 32.4364 3.64715 32.3308 3.6091 32.2259C3.73414 32.1848 3.86228 32.1421 3.99354 32.0986C6.40816 31.4687 7.47762 31.2264 7.90711 31.1596C7.51723 31.2831 7.14366 31.4019 6.79339 31.5145C7.01707 31.4998 7.43102 31.4136 7.98245 31.2753C7.86051 31.3367 7.78207 31.3739 8.14865 31.2668C12.1422 30.2905 14.8085 29.5783 16.8511 28.9974C14.3371 29.934 10.2845 31.294 5.39385 32.831H5.39463ZM17.4546 34.7664C17.4274 34.7617 17.401 34.7547 17.3785 34.7439C17.6014 34.3726 17.8809 34.4487 18.3532 34.4487C18.0549 34.5559 17.7551 34.6623 17.4546 34.7656V34.7664ZM17.5648 34.7703L18.0969 34.5994C17.9198 34.6802 17.7256 34.7578 17.5648 34.7703ZM18.2281 34.5567L18.3524 34.5171L18.4953 34.4464C18.5256 34.4449 18.5574 34.4433 18.5893 34.4417L18.6258 34.6476C18.4805 34.6833 18.3368 34.7229 18.1939 34.7633C18.1155 34.705 18.1124 34.6367 18.2281 34.5575V34.5567ZM18.4619 36.0222L18.4137 35.9089L18.4114 36.037C18.2786 36.0758 18.1435 36.117 18.0068 36.1582C17.9819 36.0953 17.9578 36.0323 17.9338 35.9694C18.058 35.9314 18.1885 35.8918 18.3221 35.8506C18.5232 35.8452 18.7298 35.8413 18.9256 35.8397C18.9341 35.8529 18.9419 35.8669 18.9496 35.8801C18.792 35.9252 18.6296 35.9725 18.4627 36.0215L18.4619 36.0222ZM21.6252 28.7986C21.6105 28.7931 21.5957 28.7885 21.5817 28.783C21.5996 28.7877 21.6136 28.7931 21.6275 28.7978C21.6268 28.7978 21.626 28.7978 21.6244 28.7978L21.6252 28.7986ZM18.5116 27.8526C18.5232 27.82 18.2623 27.8565 17.5897 27.9978C17.5408 28.0444 17.2977 28.1446 16.9094 28.2844L10.7986 29.8921L10.6953 29.8657C10.3497 29.9511 10.0025 30.0381 9.65615 30.1243C12.9189 29.0859 17.1214 27.9038 21.6462 26.5998C21.1406 26.8818 19.1966 27.5349 18.5108 27.8526H18.5116ZM21 24.9758L19.71 25.2415L20.2451 25.0551C21.2765 24.8011 22.1759 24.5673 22.9828 24.3468C22.3312 24.5557 21.6532 24.7708 21 24.9758ZM48.6047 22.9418C48.6047 22.9418 48.597 22.9441 48.5931 22.9449L48.5092 22.7251C43.3941 24.0019 48.9286 22.5465 47.8646 22.7142C48.0595 22.6536 48.2545 22.5923 48.4486 22.5317L48.6055 22.9418H48.6047ZM50.6668 20.8681L50.7879 21.2013C50.7879 21.2013 50.7825 21.2036 50.7794 21.2044C50.7685 21.1749 50.7576 21.1454 50.7475 21.1166C50.7514 21.1166 50.7537 21.1166 50.7553 21.1174C50.7328 21.0561 50.7126 21.0001 50.6939 20.9489C50.6916 20.9489 50.6893 20.9489 50.687 20.9497C50.6769 20.9217 50.6668 20.8945 50.6582 20.8704C50.6613 20.8697 50.6637 20.8681 50.6668 20.8673V20.8681ZM48.9084 21.6417C49.553 21.4902 50.1759 21.345 50.7724 21.2075C49.6346 21.6572 45.2449 23.0233 48.4362 22.1465C47.6254 22.4137 46.7967 22.6886 45.9462 22.9705C44.9381 23.1585 43.134 23.5188 42.6548 23.6703L42.675 23.64C43.419 23.4179 43.8687 23.2742 43.8151 23.2633L42.7192 23.574L42.7317 23.5561C42.7006 23.5693 42.6649 23.5849 42.6252 23.6012L42.174 23.7293C42.1406 23.7309 42.1095 23.7293 42.0824 23.7223L42.1095 23.7472L39.7493 24.4167C40.4234 24.1254 41.5395 23.9072 41.5931 23.5934L40.9508 23.8699C41.096 23.7278 41.1146 23.6206 41.0517 23.5359C43.1759 23.0148 45.2426 22.5138 47.1617 22.0556C46.559 22.2739 46.3524 22.3771 47.0281 22.2203L48.91 21.6409L48.9084 21.6417ZM42.5134 23.88L42.647 23.6812C43.6372 23.4769 44.7463 23.2377 45.9105 22.9822C45.815 23.014 45.7187 23.0459 45.6224 23.0777L42.5134 23.88ZM45.0616 23.2633C44.9506 23.2998 44.8387 23.3371 44.7269 23.3736C44.4279 23.435 44.6717 23.3666 45.0616 23.2633ZM42.3076 23.9328L39.2949 24.7102C39.3252 24.6691 39.3687 24.6287 39.4215 24.5906C40.4327 24.2963 41.3935 24.0175 42.1569 23.793L42.3068 23.9328H42.3076ZM48.2964 19.7419L48.3267 19.8266C48.0696 19.8701 47.7869 19.9252 47.5873 19.9641C44.4069 20.8798 41.7166 21.6393 39.2111 22.3414C41.0828 21.6681 44.7517 20.5303 47.6821 19.7373C47.5275 19.8258 47.8793 19.7971 48.2964 19.7412V19.7419ZM48.1325 17.4741C48.0688 17.2978 48.0067 17.1238 47.9422 16.9475C47.9422 16.9475 47.9438 16.9499 47.9446 16.9491C48.0083 17.1254 48.0719 17.3017 48.1349 17.4788C48.1372 17.4788 48.1395 17.4772 48.1418 17.4772C48.0805 17.3064 48.0168 17.1301 47.9508 16.9475C47.9547 16.946 47.9585 16.9444 47.9624 16.9429C48.0316 17.1347 48.0945 17.3095 48.1535 17.4726C48.162 17.4702 48.1714 17.4671 48.1791 17.464L48.256 17.6768C48.2475 17.6799 48.2389 17.6838 48.2304 17.6869C48.2956 17.8694 48.3578 18.0411 48.4199 18.2127C48.416 18.2143 48.4113 18.215 48.4075 18.2166C48.3453 18.0442 48.2824 17.8702 48.2187 17.6916C48.2164 17.6924 48.2016 17.6535 48.2001 17.6543C48.263 17.829 48.3236 17.996 48.3764 18.1382C48.3764 18.1382 48.3764 18.1382 48.3748 18.1382C48.322 17.996 48.2615 17.829 48.1985 17.6543C46.465 18.337 44.5514 19.0841 42.5165 19.8072C41.6459 19.9781 40.6059 20.2165 39.4386 20.4868C40.7473 20.0153 43.9347 18.8356 48.1317 17.4733L48.1325 17.4741ZM45.2006 14.6424C45.3808 14.5935 45.5501 14.5492 45.7024 14.5073C45.7459 14.4987 45.7893 14.4917 45.8189 14.4871C45.8119 14.4661 45.8057 14.4459 45.7987 14.425C45.8033 14.4234 45.808 14.4218 45.8127 14.4203C45.8196 14.4413 45.822 14.4459 45.829 14.4684C45.8321 14.4684 45.8297 14.4498 45.8328 14.4498L45.9136 14.6929C45.9136 14.6929 45.9074 14.6945 45.9043 14.6952C45.9043 14.6952 45.9307 14.7744 45.9377 14.797C45.933 14.7985 45.9346 14.8172 45.9299 14.8187C45.9222 14.7962 45.9175 14.783 45.9105 14.7597C43.9067 15.2203 44.1452 15.0478 45.2014 14.6432L45.2006 14.6424ZM40.3147 15.6086L43.6217 14.8047C42.2936 15.1783 40.797 15.5721 39.1326 15.9666C39.4689 15.8525 39.8666 15.7328 40.3147 15.6086ZM37.5832 20.8798C38.0616 20.7951 38.6674 20.6724 39.4246 20.5015C38.7156 20.6662 37.9622 20.8456 37.1739 21.0374C37.3098 20.9846 37.4457 20.9326 37.5832 20.8798ZM34.4587 19.4134L32.5349 20.1404C31.3715 20.3547 30.1715 20.5675 29.1378 20.757C29.0889 20.7454 29.0438 20.7322 29.0042 20.7174C30.6834 20.3198 32.5372 19.8771 34.4587 19.4142V19.4134ZM32.5 20.1536L31.3979 20.5699C30.9086 20.6934 30.4077 20.82 29.9028 20.9489C29.8337 20.8953 29.6745 20.8611 29.4997 20.8285C30.629 20.559 31.6115 20.3408 32.5 20.1528V20.1536ZM25.938 34.9101L25.5567 34.82L24.4258 35.4133C24.5781 35.2145 24.8173 34.9427 25.1039 34.6375C25.7865 34.4697 26.3574 34.354 26.8941 34.2515C26.6067 34.5039 26.2883 34.733 25.9372 34.9101H25.938ZM27.322 32.5296C27.5154 32.4566 27.7181 32.3805 27.9363 32.2982C27.9822 32.2958 28.021 32.2943 28.0575 32.2935C27.8377 32.3735 27.5985 32.4535 27.322 32.5296ZM24.5672 24.2458C24.7427 24.0827 25.4984 23.7215 26.0273 23.4567C26.7908 23.2198 27.503 22.9907 28.2369 22.7577C28.2206 22.774 28.2237 22.7841 28.2501 22.7888L30.2849 22.1232C31.9959 21.6106 34.0766 21.0382 37.1739 20.3089C37.0069 20.3648 36.8306 20.4316 36.6667 20.5023C34.374 21.3209 31.5004 22.2886 28.4155 23.2524C27.1123 23.5887 25.8184 23.9235 24.568 24.2466L24.5672 24.2458ZM36.2217 25.8449C34.7911 26.2698 32.7772 26.7909 30.7758 27.3338C30.6399 27.34 30.4892 27.3485 30.3253 27.3617C32.2452 26.735 34.1939 26.1719 36.2217 25.8457V25.8449ZM29.6784 31.6644C29.6636 31.6737 29.6481 31.6838 29.6333 31.6932C29.6248 31.6932 29.6155 31.6947 29.6069 31.6955C29.6294 31.6854 29.6527 31.6753 29.6784 31.6644ZM28.6027 27.9372C28.779 27.8774 28.9545 27.8176 29.1308 27.7586C29.2225 27.7431 29.3001 27.7306 29.3615 27.7229C29.1052 27.7943 28.852 27.8666 28.6019 27.938L28.6027 27.9372ZM31.1129 31.6295C30.5381 31.8011 29.9401 31.944 29.3025 32.017C29.3242 31.944 29.3281 31.8718 29.4446 31.7864C29.5696 31.7499 29.7001 31.7149 29.8399 31.6823C29.7793 31.6846 29.7172 31.6869 29.6551 31.6908C29.6908 31.6706 29.7211 31.6528 29.7475 31.6365C29.7995 31.617 29.857 31.5969 29.923 31.5767C29.937 31.5347 29.9673 31.5013 30.0108 31.4757C30.0185 31.4718 30.0263 31.4679 30.0333 31.464C30.2578 31.353 30.7742 31.3934 31.3629 31.3972C31.2721 31.4726 31.1905 31.5503 31.1136 31.6287L31.1129 31.6295ZM31.4041 27.1847C31.8546 27.1171 34.4634 26.4041 36.2869 25.8341C36.5262 25.7968 36.7669 25.7603 37.0085 25.7292C36.8267 25.7354 36.7149 25.73 36.6543 25.7176C36.8904 25.6422 37.1071 25.57 37.2966 25.504C37.104 25.5708 36.8857 25.6414 36.6458 25.716C36.471 25.6725 36.8205 25.5482 37.2112 25.4185C37.0356 25.4488 37.0092 25.3906 37.0147 25.3098C37.0791 25.2896 37.1428 25.2694 37.2057 25.2492L37.3766 25.205C37.3378 25.2143 37.2997 25.2228 37.2617 25.2314C37.3867 25.1918 37.5071 25.1537 37.6228 25.1164C37.4589 25.1646 37.2958 25.2127 37.1343 25.2609C37.0947 25.2702 37.0551 25.2787 37.0162 25.2881C37.0248 25.2073 37.052 25.1125 36.9945 25.0589L38.3389 24.8826C38.1331 24.9518 37.8869 25.0318 37.622 25.1164C37.9078 25.0325 38.1975 24.9479 38.4857 24.8632L38.9214 24.8065L37.3758 25.205C37.9412 25.0745 38.5478 24.9308 39.2305 24.7654L39.2631 24.7615C39.2631 24.7615 39.2647 24.7584 39.2654 24.7576C40.1477 24.544 41.1574 24.2955 42.3721 23.9926L42.4117 24.0299L42.4497 23.9732C43.0291 23.8287 43.6543 23.6726 44.3339 23.5017C43.3755 23.8179 42.386 24.1409 41.3593 24.4702L41.0393 24.4493L40.8001 24.6077L41.0424 24.5712C38.5043 25.382 35.7355 26.2294 32.6328 27.0946L31.4018 27.1839L31.4041 27.1847ZM38.0601 29.1341C38.1323 29.1675 38.2022 29.2086 38.2612 29.2537C38.234 29.2824 38.2084 29.3104 38.1828 29.3383C37.9001 29.3865 37.6189 29.4509 37.3673 29.5271C37.57 29.3997 37.8146 29.2645 38.0608 29.1341H38.0601ZM37.8278 28.9578C38.1999 28.8288 38.5649 28.7007 38.9221 28.5741C38.9299 28.5725 38.9385 28.5718 38.947 28.571C38.94 28.5803 38.9315 28.5904 38.9237 28.5997C38.641 28.6681 38.3109 28.7768 37.9094 28.9733C37.8822 28.9679 37.855 28.9624 37.8286 28.9578H37.8278ZM38.1214 30.9988C38.067 31.0113 38.0135 31.0221 37.9606 31.0314C37.9987 31.0097 38.0368 30.9864 38.0725 30.9615L38.1214 30.998V30.9988ZM37.215 26.3365C37.2446 26.3288 37.2733 26.3202 37.3028 26.3125L37.5312 26.3373C37.017 26.4996 37.0908 26.4313 37.215 26.3365ZM36.5805 31.4594C36.6038 31.4182 36.6194 31.3778 36.6232 31.3374C36.6636 31.3934 36.8081 31.3825 36.5805 31.4594ZM36.6326 31.4508C36.6124 31.4586 36.5922 31.4656 36.572 31.4726C36.5743 31.4687 36.5766 31.4648 36.579 31.4617C36.5968 31.4586 36.6147 31.4547 36.6326 31.4508ZM35.3185 27.201C35.0777 27.1233 34.701 27.1054 34.2443 27.1272C34.7787 26.9781 35.3301 26.8243 35.9056 26.6674L36.0244 26.7039C35.3309 26.9928 34.4672 26.9454 35.3185 27.201ZM36.4198 32.0139C36.3654 31.996 36.3134 31.9735 36.2372 31.9518L36.2699 32.0729C35.6128 32.3331 34.9278 32.6026 34.2234 32.8799C34.1737 32.8721 34.0564 32.883 33.8358 32.9218C33.8063 32.9777 33.5337 33.1168 33.3504 33.2224C32.9419 33.3824 32.5279 33.5447 32.1109 33.707C32.2406 33.6332 32.1155 33.5144 31.9066 33.4228C32.1458 33.3179 32.4021 33.2107 32.6343 33.1082C33.1275 33.1385 33.6696 32.5452 34.2746 32.8084C34.4634 32.5319 35.9778 32.0691 36.4702 31.5945C36.9611 31.5013 37.6135 31.3374 38.328 31.1534L38.4142 31.2178C37.7898 31.4687 37.1219 31.7351 36.4205 32.0131L36.4198 32.0139ZM38.4981 31.1844L38.6216 31.078C38.7489 31.0454 38.8779 31.012 39.0076 30.9786C38.8414 31.0454 38.6721 31.1145 38.4981 31.1844ZM39.0674 29.1908C39.0177 29.183 38.9687 29.1737 38.919 29.1659C38.9035 28.9904 38.9835 28.8094 39.2445 28.6277C39.5722 28.703 39.3617 28.9407 39.0674 29.1908ZM38.088 26.3513C37.6772 26.3692 37.5933 26.3032 37.5482 26.2465C38.067 26.1121 38.6138 25.9871 39.1 25.8465L39.0767 25.8403C39.2709 25.7929 39.4674 25.744 39.6685 25.6958L39.806 25.7121C39.2281 25.9902 39.2165 26.1851 38.088 26.3513ZM39.9062 32.0085C39.865 32.0131 39.8332 32.0155 39.8075 32.0162C39.9792 31.9479 40.1516 31.8796 40.3256 31.8112C40.2495 31.8741 40.1361 31.9448 39.9062 32.0085ZM39.6872 29.2607C39.6825 29.2552 39.6794 29.2498 39.6778 29.2444C39.9287 29.1737 40.2192 29.1263 40.5555 29.1286C40.3792 29.2583 40.0615 29.284 39.6879 29.2614L39.6872 29.2607ZM47.1935 25.0675C47.2215 25.0628 47.251 25.0582 47.2813 25.0527L47.3007 25.1048C47.2712 25.1149 47.2417 25.125 47.2122 25.1351L47.1935 25.0675ZM47.2735 25.3549C47.31 25.3502 47.345 25.3455 47.3784 25.3417L47.4025 25.4069C47.3675 25.4201 47.3333 25.4325 47.2984 25.4457L47.2728 25.3549H47.2735ZM47.4421 25.9591L47.352 25.6376L47.4661 25.6049L47.5896 25.9366C47.5407 25.9443 47.491 25.9521 47.4421 25.9591ZM47.5912 25.9366L47.4553 25.5715L47.3427 25.6034L47.3054 25.4675C47.3403 25.4543 47.3753 25.4411 47.4102 25.4279L47.599 25.9358C47.599 25.9358 47.5935 25.9358 47.5912 25.9366ZM47.4196 25.424L47.6091 25.9342C47.6091 25.9342 47.6028 25.935 47.6005 25.9358L47.4118 25.4271C47.4118 25.4271 47.4172 25.4248 47.4196 25.424ZM47.4118 25.4046C47.4118 25.4046 47.4064 25.4069 47.404 25.4077L47.3652 25.302L47.2681 25.3331L47.2145 25.1405C47.2448 25.1312 47.2743 25.1219 47.3046 25.1125L47.4126 25.4046H47.4118ZM49.1872 24.4648C48.4929 24.7001 47.8855 24.9067 47.3038 25.104L47.2464 24.9502C47.2176 24.9588 47.192 24.9665 47.1671 24.9743L47.0856 24.6823C47.0452 24.6877 46.9901 24.6458 46.9497 24.6512C46.9621 24.6962 46.9738 24.739 46.9722 24.739H46.9714C46.9722 24.739 46.9606 24.6955 46.9481 24.6504C46.5878 24.6962 46.2359 24.7654 45.8787 24.8112C45.4049 24.7017 44.9288 24.5541 43.5735 24.9339C43.9852 24.8384 44.7618 24.8221 44.4605 25.0178C44.1452 25.0613 43.8314 25.1079 43.5192 25.1537C43.2023 25.1739 42.9064 25.1778 42.7099 25.1444C40.8669 25.6523 43.0874 25.3572 42.3503 25.7168C41.9558 25.6213 41.7352 25.7292 41.4975 25.8954L41.4696 25.8993C41.1022 25.8574 40.9298 25.6414 41.8696 25.5024C41.3212 25.3417 40.3481 25.9684 40.3434 26.0655C38.4717 26.1975 40.9422 25.4465 40.3784 25.5296L40.2005 25.5669C40.2246 25.5614 40.2471 25.556 40.2704 25.5498C40.0716 25.5133 38.3086 25.949 43.0423 24.5898C43.245 24.5021 43.7351 24.3203 44.0465 24.207C44.1925 24.1666 44.243 24.1526 44.3681 24.1184C44.2718 24.1425 44.1995 24.1611 44.104 24.186C44.3028 24.1122 44.3199 24.1044 44.0054 24.2116C42.8676 24.5075 41.9395 24.7328 41.5511 24.7949C41.8307 24.6846 42.1911 24.5541 42.6105 24.4089C42.6586 24.4011 42.7084 24.3926 42.7612 24.384C47.2805 23.2618 46.9613 23.2354 48.524 22.7663L48.5915 22.9441C48.037 23.1049 47.4964 23.2594 46.9668 23.4093C47.3683 23.3045 47.5376 23.2649 47.4335 23.3029C47.7411 23.2105 48.1147 23.0979 48.5954 22.9527L49.0637 24.179C48.7663 24.297 48.3508 24.4539 47.776 24.6613C48.2801 24.4912 48.7173 24.3436 49.0816 24.2209L48.597 22.9527C48.6008 22.9519 48.6047 22.9503 48.6086 22.9495L49.1872 24.464V24.4648Z" fill="#FFCD1C"/>
</svg>
