<svg width="65" height="20" viewBox="0 0 65 20" fill="none" xmlns="http://www.w3.org/2000/svg">
<g id="Group">
<path id="Vector" opacity="0.8" fill-rule="evenodd" clip-rule="evenodd" d="M65 10.3734L62.7486 12.6075C62.8408 11.9432 62.8905 11.2332 62.8905 10.494C62.8924 9.69133 62.8307 8.88977 62.7061 8.09683L65 10.3734ZM62.4831 10.2678C62.4831 13.9928 61.4886 15.468 60.2269 15.732C60.5682 13.8549 60.7715 13.0708 60.7715 10.509C60.7715 7.71543 60.5295 5.94947 60.1308 3.99991C61.4374 4.12599 62.4831 6.44829 62.4831 10.2678ZM52.2088 1.25838C52.4846 0.705187 52.7801 0.398646 53.082 0.398646C53.6706 0.398646 54.2348 1.56334 54.6722 3.44593C55.1292 5.41598 55.4129 7.35609 55.4129 10.3726C55.4129 13.3908 55.1292 14.5413 54.6722 16.5129C54.2348 18.3955 53.6706 19.5602 53.082 19.5602C52.7447 19.5602 52.4153 19.1764 52.1127 18.494L54.2979 13.4853V5.57438L52.2088 1.25838ZM60.3507 10.3734C60.3507 16.4373 59.0221 19.7769 57.3838 19.7769C56.9992 19.7769 56.6336 19.4357 56.3042 18.8226H54.3578C54.6399 18.2584 54.8897 17.5074 55.0985 16.6098C55.5634 14.6067 55.8511 13.4199 55.8511 10.3734C55.8511 7.32615 55.5634 5.35215 55.0985 3.349C54.8897 2.45066 54.6399 1.70046 54.3578 1.13624H56.3042C56.6336 0.522366 56.9992 0.181152 57.3846 0.181152C59.0236 0.181152 60.3507 4.3096 60.3507 10.3734ZM59.2522 7.88407L56.4649 9.41362L59.2522 10.9432V7.88407ZM4.77305 15.732C3.51221 15.468 2.51694 13.9928 2.51694 10.2678C2.51694 6.44829 3.56344 4.12599 4.86919 4.0007C4.47045 5.94947 4.22853 7.71543 4.22853 10.5098C4.22853 13.0708 4.43184 13.8549 4.77305 15.732ZM12.7912 1.25838L10.7029 5.57438V13.4853L12.8881 18.494C12.5855 19.1764 12.2561 19.5602 11.9188 19.5602C11.3302 19.5602 10.7652 18.3955 10.3286 16.5129C9.87076 14.5421 9.58786 13.39 9.58786 10.3734C9.58786 7.35609 9.87076 5.41677 10.3286 3.44593C10.7652 1.56255 11.3302 0.398646 11.918 0.398646C12.2199 0.398646 12.5162 0.705975 12.7912 1.25838ZM7.61702 19.7769C5.97794 19.7769 4.65012 16.4373 4.65012 10.3734C4.65012 4.3096 5.97794 0.181152 7.61702 0.181152C8.00158 0.181152 8.36643 0.522366 8.69661 1.13624H10.643C10.3609 1.70046 10.1111 2.45144 9.90228 3.349C9.43735 5.35215 9.14972 7.32615 9.14972 10.3734C9.14972 13.4199 9.43735 14.6067 9.90228 16.6098C10.1111 17.5082 10.3609 18.2584 10.643 18.8226H8.69661C8.36643 19.4357 8.00158 19.7769 7.61702 19.7769ZM5.74941 7.88407V10.9432L8.53664 9.41441L5.74941 7.88407ZM0 10.3734L2.29472 8.09683C2.1698 8.88975 2.10788 9.69131 2.10953 10.494C2.10953 11.2332 2.15997 11.944 2.25138 12.6075L0.000788024 10.3734H0Z" fill="white"/>
<path id="Vector_2" fill-rule="evenodd" clip-rule="evenodd" d="M11.0977 13.4854H16.2907V5.57446H11.0977V13.4854ZM16.6847 13.4854H21.6572V5.57446H16.6847V13.4854ZM22.0512 13.4854H27.0236V5.57446H22.0512V13.4854ZM27.4176 13.4854H32.3892V5.57446H27.4168V13.4854H27.4176ZM32.784 13.4854H37.7549V5.57446H32.784V13.4854ZM38.1505 13.4854H43.1213V5.57446H38.1497L38.1505 13.4854ZM43.4995 13.4854H48.472V5.57446H43.4995V13.4854Z" fill="#FFCD1C"/>
<path id="Vector_3" opacity="0.6" fill-rule="evenodd" clip-rule="evenodd" d="M48.866 13.4854H53.8376V5.57446H48.866V13.4854Z" fill="#FFCD1C"/>
<path id="Vector_4" fill-rule="evenodd" clip-rule="evenodd" d="M13.1199 1.49707H17.3382L16.3634 5.18265H11.2893L13.1199 1.49707ZM43.049 1.49707H47.2932L48.4516 5.18265H43.4973L43.049 1.49707ZM22.6061 1.49707H27.0387V5.18265H22.1025L22.6061 1.49707ZM17.7471 1.49707H22.2058L21.7014 5.18265H16.7732L17.7471 1.49707Z" fill="#FFCD1C"/>
<path id="Vector_5" opacity="0.6" fill-rule="evenodd" clip-rule="evenodd" d="M51.9559 1.49707H47.6887L48.8471 5.18265H53.8014L51.9559 1.49707Z" fill="#FFCD1C"/>
<path id="Vector_6" fill-rule="evenodd" clip-rule="evenodd" d="M27.4477 5.16301V1.55859H32.335V5.16301H27.4477ZM32.8062 5.16301V1.55859H37.6943V5.16301H32.8062ZM38.1332 5.16301V1.55859H42.5722L43.0213 5.16301H38.1332ZM13.1151 17.9258H17.6116L16.3492 13.877H11.2483L13.1151 17.9258ZM43.0072 17.9258H47.294L48.4524 13.877H43.4942L43.0072 17.9258ZM22.8779 17.9258H27.0387L27.0355 13.877H22.0915L22.8779 17.9258ZM18.0158 17.9258H22.4792L21.6935 13.877H16.7534L18.0158 17.9258Z" fill="#FFCD1C"/>
<path id="Vector_7" opacity="0.6" fill-rule="evenodd" clip-rule="evenodd" d="M51.9559 17.9258H47.6887L48.8471 13.877H53.8053L51.9559 17.9258Z" fill="#FFCD1C"/>
<path id="Vector_8" fill-rule="evenodd" clip-rule="evenodd" d="M27.4475 17.9141V13.9346H32.3348V17.9141H27.4475ZM32.8801 17.9141V13.9346H37.7682V17.9141H32.8801ZM38.1749 17.9141V13.9346H43.0622L42.572 17.9141H38.1749Z" fill="#FFCD1C"/>
</g>
</svg>
