<svg width="20" height="21" viewBox="0 0 20 21" fill="none" xmlns="http://www.w3.org/2000/svg">
<g id="group 1" clip-path="url(#clip0_267_2482)">
<g id="Group">
<g id="Group_2">
<path id="Vector" d="M17.1129 10.8577H15.5662C15.7238 11.2893 15.81 11.7551 15.81 12.2406V18.0864C15.81 18.2888 15.7747 18.4831 15.7106 18.6638H18.2677C19.2229 18.6638 20 17.8867 20 16.9315V13.7447C20 12.1528 18.7048 10.8577 17.1129 10.8577Z" fill="#FFD66C"/>
</g>
</g>
<g id="Group_3">
<g id="Group_4">
<path id="Vector_2" d="M4.19005 12.2406C4.19005 11.7551 4.27618 11.2893 4.43384 10.8577H2.88712C1.29516 10.8577 0 12.1528 0 13.7448V16.9315C0 17.8867 0.777072 18.6638 1.73227 18.6638H4.28938C4.22528 18.483 4.19005 18.2888 4.19005 18.0864V12.2406Z" fill="#FFD66C"/>
</g>
</g>
<g id="Group_5">
<g id="Group_6">
<path id="Vector_3" d="M11.7681 9.35352H8.23209C6.64013 9.35352 5.34497 10.6487 5.34497 12.2406V18.0863C5.34497 18.4052 5.60349 18.6638 5.92239 18.6638H14.0778C14.3967 18.6638 14.6552 18.4053 14.6552 18.0863V12.2406C14.6552 10.6487 13.3601 9.35352 11.7681 9.35352Z" fill="#FFD66C"/>
</g>
</g>
<g id="Group_7">
<g id="Group_8">
<path id="Vector_4" d="M9.99995 1.69824C8.08541 1.69824 6.52783 3.25582 6.52783 5.1704C6.52783 6.46903 7.24459 7.60321 8.30311 8.19868C8.80518 8.48111 9.38401 8.64251 9.99995 8.64251C10.6159 8.64251 11.1947 8.48111 11.6968 8.19868C12.7553 7.60321 13.4721 6.46899 13.4721 5.1704C13.4721 3.25586 11.9145 1.69824 9.99995 1.69824Z" fill="#FFD66C"/>
</g>
</g>
<g id="Group_9">
<g id="Group_10">
<path id="Vector_5" d="M3.90308 4.93457C2.47124 4.93457 1.3064 6.09942 1.3064 7.53126C1.3064 8.96309 2.47124 10.1279 3.90308 10.1279C4.26629 10.1279 4.61215 10.0527 4.92633 9.91747C5.46953 9.6836 5.91742 9.26962 6.19457 8.75106C6.3891 8.38712 6.49977 7.97192 6.49977 7.53126C6.49977 6.09946 5.33492 4.93457 3.90308 4.93457Z" fill="#FFD66C"/>
</g>
</g>
<g id="Group_11">
<g id="Group_12">
<path id="Vector_6" d="M16.0969 4.93457C14.6651 4.93457 13.5002 6.09942 13.5002 7.53126C13.5002 7.97196 13.6109 8.38716 13.8054 8.75106C14.0826 9.26966 14.5305 9.68364 15.0737 9.91747C15.3879 10.0527 15.7337 10.1279 16.0969 10.1279C17.5288 10.1279 18.6936 8.96309 18.6936 7.53126C18.6936 6.09942 17.5288 4.93457 16.0969 4.93457Z" fill="#FFD66C"/>
</g>
</g>
</g>
<defs>
<clipPath id="clip0_267_2482">
<rect width="20" height="20" fill="white" transform="translate(0 0.181152)"/>
</clipPath>
</defs>
</svg>
