<svg width="21" height="21" viewBox="0 0 21 21" fill="none" xmlns="http://www.w3.org/2000/svg">
<g id="hourglass 1">
<g id="Group">
<path id="Vector" fill-rule="evenodd" clip-rule="evenodd" d="M8.98269 10.1812L6.13603 8.2829C5.20853 7.6654 4.65186 6.62456 4.65186 5.50956C4.65186 5.0029 4.65186 4.42873 4.65186 3.93123C4.65186 2.7804 5.58436 1.8479 6.73519 1.8479H14.2352C15.386 1.8479 16.3185 2.7804 16.3185 3.93123V5.50956C16.3185 6.62456 15.7619 7.6654 14.8344 8.2829L11.9877 10.1812L14.8344 12.0787C15.7619 12.6971 16.3185 13.7379 16.3185 14.8521V16.4312C16.3185 17.5821 15.386 18.5146 14.2352 18.5146C12.3135 18.5146 8.65602 18.5146 6.73519 18.5146C5.58436 18.5146 4.65186 17.5821 4.65186 16.4312C4.65186 15.9329 4.65186 15.3587 4.65186 14.8521C4.65186 13.7379 5.20853 12.6971 6.13603 12.0787L8.98269 10.1812ZM10.4852 11.1829L7.06019 13.4654C6.59686 13.7746 6.31852 14.2954 6.31852 14.8521V16.4312C6.31852 16.6612 6.50519 16.8479 6.73519 16.8479H14.2352C14.4652 16.8479 14.6519 16.6612 14.6519 16.4312C14.6519 15.9329 14.6519 15.3587 14.6519 14.8521C14.6519 14.2954 14.3735 13.7746 13.9094 13.4654L10.4852 11.1829ZM10.4852 9.17956L13.9094 6.89623C14.3735 6.58707 14.6519 6.06706 14.6519 5.50956C14.6519 5.0029 14.6519 4.42873 14.6519 3.93123C14.6519 3.70123 14.4652 3.51457 14.2352 3.51457C12.3135 3.51457 8.65602 3.51457 6.73519 3.51457C6.50519 3.51457 6.31852 3.70123 6.31852 3.93123V5.50956C6.31852 6.06706 6.59686 6.58707 7.06019 6.89623L10.4852 9.17956Z" fill="#FFD66C"/>
</g>
</g>
</svg>
