<svg width="24" height="13" viewBox="0 0 24 13" fill="none" xmlns="http://www.w3.org/2000/svg">
<g id="Group">
<g id="Group_2">
<path id="Vector" d="M23.8414 6.21328L18.387 0.758813C18.191 0.53002 17.8467 0.503349 17.6179 0.69933C17.3891 0.895264 17.3624 1.2396 17.5584 1.46839C17.5767 1.48972 17.5966 1.50964 17.6179 1.52788L22.1396 6.05508H0.545428C0.244214 6.05508 0 6.29929 0 6.60055C0 6.90181 0.244214 7.14598 0.545428 7.14598H22.1396L17.6179 11.6677C17.3891 11.8636 17.3624 12.208 17.5584 12.4368C17.7544 12.6656 18.0987 12.6922 18.3275 12.4962C18.3488 12.478 18.3687 12.4581 18.387 12.4368L23.8414 6.9823C24.0529 6.76963 24.0529 6.42604 23.8414 6.21328Z" fill="white"/>
</g>
</g>
</svg>
