<svg width="24" height="13" viewBox="0 0 24 13" fill="none" xmlns="http://www.w3.org/2000/svg">
<g id="Group">
<g id="Group_2">
<path id="Vector" d="M0.15863 6.21328L5.61305 0.758813C5.80898 0.53002 6.15332 0.503349 6.38211 0.69933C6.6109 0.895264 6.63758 1.2396 6.4416 1.46839C6.42332 1.48972 6.40344 1.50964 6.38211 1.52788L1.8604 6.05508H23.4546C23.7558 6.05508 24 6.29929 24 6.60055C24 6.90181 23.7558 7.14598 23.4546 7.14598H1.8604L6.38211 11.6677C6.6109 11.8636 6.63758 12.208 6.4416 12.4368C6.24562 12.6656 5.90132 12.6922 5.67253 12.4962C5.6512 12.478 5.63128 12.4581 5.61305 12.4368L0.158583 6.9823C-0.0528679 6.76963 -0.052866 6.42604 0.15863 6.21328Z" fill="white"/>
</g>
</g>
</svg>
