<svg width="40" height="40" viewBox="0 0 40 40" fill="none" xmlns="http://www.w3.org/2000/svg">
<g id="pin (1) 1" clip-path="url(#clip0_267_2771)">
<g id="Pin">
<g id="Vector" filter="url(#filter0_b_267_2771)">
<path d="M20 0.578003C16.1228 0.583146 12.4058 2.12564 9.66424 4.86725C6.92264 7.60885 5.38014 11.3258 5.375 15.203C5.375 25.7025 19.0006 38.8528 19.5795 39.4074C19.6921 39.5168 19.843 39.578 20 39.578C20.157 39.578 20.3079 39.5168 20.4205 39.4074C20.9994 38.8528 34.625 25.7025 34.625 15.203C34.6199 11.3258 33.0774 7.60885 30.3358 4.86725C27.5941 2.12564 23.8772 0.583146 20 0.578003ZM20 21.9061C18.6742 21.9061 17.3783 21.513 16.2759 20.7764C15.1736 20.0399 14.3145 18.993 13.8071 17.7682C13.2998 16.5433 13.167 15.1956 13.4257 13.8953C13.6843 12.595 14.3227 11.4006 15.2602 10.4632C16.1976 9.52573 17.392 8.88732 18.6923 8.62868C19.9926 8.37003 21.3403 8.50278 22.5652 9.01012C23.79 9.51747 24.8369 10.3766 25.5734 11.4789C26.31 12.5813 26.7031 13.8772 26.7031 15.203C26.7021 16.9805 25.9955 18.6848 24.7386 19.9417C23.4818 21.1985 21.7775 21.9051 20 21.9061Z" fill="black"/>
</g>
</g>
</g>
<defs>
<filter id="filter0_b_267_2771" x="-5.07849" y="-9.87549" width="50.157" height="59.907" filterUnits="userSpaceOnUse" color-interpolation-filters="sRGB">
<feFlood flood-opacity="0" result="BackgroundImageFix"/>
<feGaussianBlur in="BackgroundImageFix" stdDeviation="5.22675"/>
<feComposite in2="SourceAlpha" operator="in" result="effect1_backgroundBlur_267_2771"/>
<feBlend mode="normal" in="SourceGraphic" in2="effect1_backgroundBlur_267_2771" result="shape"/>
</filter>
<clipPath id="clip0_267_2771">
<rect width="39" height="39" fill="white" transform="translate(0.5 0.578125)"/>
</clipPath>
</defs>
</svg>
