<svg width="101" height="71" viewBox="0 0 101 71" fill="none" xmlns="http://www.w3.org/2000/svg">
<g id="Group 19">
<path id="Vector" d="M98.4998 11.3434C97.9348 9.21558 96.8206 7.2736 95.2689 5.71193C93.7172 4.15026 91.7824 3.02371 89.6583 2.44512C81.86 0.341309 50.5898 0.341309 50.5898 0.341309C50.5898 0.341309 19.3197 0.341309 11.5214 2.44512C9.39731 3.02371 7.4625 4.15026 5.91078 5.71193C4.35906 7.2736 3.2449 9.21558 2.67991 11.3434C0.589845 19.1914 0.589844 35.5681 0.589844 35.5681C0.589844 35.5681 0.589845 51.9449 2.67991 59.7947C3.2449 61.9224 4.35906 63.8644 5.91078 65.4261C7.4625 66.9878 9.39731 68.1143 11.5214 68.6929C19.3197 70.795 50.5898 70.795 50.5898 70.795C50.5898 70.795 81.86 70.795 89.6583 68.6929C91.7824 68.1143 93.7172 66.9878 95.2689 65.4261C96.8206 63.8644 97.9348 61.9224 98.4998 59.7947C100.59 51.9449 100.59 35.5681 100.59 35.5681C100.59 35.5681 100.59 19.1914 98.4998 11.3434Z" fill="#EA5A47"/>
<path id="Vector_2" d="M40.3629 50.4352L66.499 35.5676L40.3629 20.7V50.4352Z" stroke="white" stroke-width="1.7188" stroke-miterlimit="10" stroke-linecap="round" stroke-linejoin="round"/>
</g>
</svg>
