<svg width="22" height="21" viewBox="0 0 22 21" fill="none" xmlns="http://www.w3.org/2000/svg">
<g id="track 1">
<g id="Group 35">
<g id="Group">
<g id="Group_2">
<path id="Vector" d="M6.40966 16.0415C5.60181 16.0415 4.94458 15.3843 4.94458 14.5764C4.94458 13.7686 5.60181 13.1114 6.40966 13.1114H12.0165C13.4705 13.1114 14.6534 11.9285 14.6534 10.4744C14.6534 9.02041 13.4705 7.83752 12.0165 7.83752H8.06235V9.0094H12.0165C12.8243 9.0094 13.4816 9.66663 13.4816 10.4745C13.4816 11.2823 12.8243 11.9395 12.0165 11.9395H6.40966C4.95563 11.9395 3.77271 13.1224 3.77271 14.5764C3.77271 16.0304 4.95563 17.2133 6.40966 17.2133H15.9376V16.0415H6.40966Z" fill="black"/>
</g>
</g>
<g id="Group_3">
<g id="Group_4">
<path id="Vector_2" d="M7.42855 2.2638C6.18668 1.02193 4.17324 1.02193 2.93141 2.2638C1.68953 3.50568 1.68953 5.51912 2.93141 6.76095L5.18 9.00955L7.42855 6.76095C8.67043 5.51908 8.67043 3.50564 7.42855 2.2638ZM5.16117 5.47458C4.61551 5.47458 4.17316 5.03224 4.17316 4.48658C4.17316 3.94091 4.61551 3.49853 5.16117 3.49853C5.70684 3.49853 6.14922 3.94087 6.14922 4.48658C6.14922 5.03224 5.70688 5.47458 5.16117 5.47458Z" fill="black"/>
</g>
</g>
<g id="Group_5">
<g id="Group_6">
<path id="Vector_3" d="M21.0686 10.4677C19.8267 9.22579 17.8133 9.22579 16.5714 10.4677C15.3295 11.7095 15.3295 13.723 16.5714 14.9648L18.82 17.2134L21.0686 14.9648C22.3104 13.723 22.3104 11.7095 21.0686 10.4677ZM18.8012 13.6785C18.2555 13.6785 17.8132 13.2361 17.8132 12.6905C17.8132 12.1448 18.2555 11.7024 18.8012 11.7024C19.3469 11.7024 19.7892 12.1448 19.7892 12.6905C19.7892 13.2361 19.3469 13.6785 18.8012 13.6785Z" fill="black"/>
</g>
</g>
</g>
</g>
</svg>
