<svg width="37" height="37" viewBox="0 0 37 37" fill="none" xmlns="http://www.w3.org/2000/svg">
<g id="tripadvisor (1) 1" clip-path="url(#clip0_267_2455)">
<path id="Vector" d="M33.5198 13.8456L36.4695 10.6365H29.9284C26.6537 8.39967 22.699 7.09692 18.4221 7.09692C14.1505 7.09692 10.2068 8.40248 6.9376 10.6365H0.380127L3.3298 13.8456C1.52181 15.4952 0.388374 17.8714 0.388374 20.5096C0.388374 25.4885 4.42502 29.5251 9.40395 29.5251C11.7691 29.5251 13.9239 28.6129 15.5327 27.1217L18.4222 30.268L21.3117 27.1244C22.9204 28.6156 25.0725 29.525 27.4377 29.525C32.4165 29.525 36.4586 25.4884 36.4586 20.5095C36.4612 17.8686 35.3279 15.4925 33.5198 13.8456ZM9.40655 26.611C6.03629 26.611 3.3052 23.8799 3.3052 20.5096C3.3052 17.1394 6.03636 14.4082 9.40655 14.4082C12.7767 14.4082 15.5079 17.1394 15.5079 20.5096C15.5079 23.8799 12.7767 26.611 9.40655 26.611ZM18.4248 20.3321C18.4248 16.3173 15.5052 12.8707 11.6516 11.3985C13.7354 10.5272 16.0214 10.0438 18.4221 10.0438C20.8227 10.0438 23.1113 10.5272 25.1953 11.3985C21.3444 12.8733 18.4248 16.3173 18.4248 20.3321ZM27.4404 26.611C24.0701 26.611 21.3389 23.8799 21.3389 20.5096C21.3389 17.1394 24.0701 14.4082 27.4404 14.4082C30.8106 14.4082 33.5417 17.1394 33.5417 20.5096C33.5417 23.8799 30.8106 26.611 27.4404 26.611ZM27.4404 17.3087C25.6733 17.3087 24.2422 18.7398 24.2422 20.5069C24.2422 22.2739 25.6733 23.705 27.4404 23.705C29.2074 23.705 30.6385 22.2738 30.6385 20.5069C30.6384 18.7426 29.2073 17.3087 27.4404 17.3087ZM12.6048 20.5096C12.6048 22.2767 11.1736 23.7078 9.40662 23.7078C7.63959 23.7078 6.20849 22.2766 6.20849 20.5096C6.20849 18.7425 7.63966 17.3114 9.40662 17.3114C11.1736 17.3087 12.6048 18.7426 12.6048 20.5096Z" fill="white"/>
</g>
<defs>
<clipPath id="clip0_267_2455">
<rect width="36.0894" height="36.0894" fill="white" transform="translate(0.380127 0.637695)"/>
</clipPath>
</defs>
</svg>
