<svg width="19" height="19" viewBox="0 0 19 19" fill="none" xmlns="http://www.w3.org/2000/svg">
<g id="Property 1=Volume off" clip-path="url(#clip0_217_1076)">
<path id="Silent" d="M10.6162 2.01001H10.417C10.0822 2.01001 9.76088 2.11117 9.48782 2.30269L4.50596 5.79001H2.51624C1.6229 5.79001 0.89624 6.51667 0.89624 7.41001V11.73C0.89624 12.6233 1.6229 13.35 2.51624 13.35H4.50596L9.4871 16.8371C9.76088 17.0288 10.082 17.13 10.417 17.13H10.6162C11.5096 17.13 12.2362 16.4033 12.2362 15.51V3.63001C12.2362 2.73667 11.5096 2.01001 10.6162 2.01001ZM4.13624 12.27H2.51624C2.21834 12.27 1.97624 12.0277 1.97624 11.73V7.41001C1.97624 7.11229 2.21834 6.87001 2.51624 6.87001H4.13624V12.27ZM11.1562 15.51C11.1562 15.8077 10.9141 16.05 10.6162 16.05H10.417C10.3052 16.05 10.1981 16.0162 10.1068 15.9524L5.21624 12.5288V6.61117L10.1074 3.18739C10.1981 3.12385 10.305 3.09001 10.417 3.09001H10.6162C10.9141 3.09001 11.1562 3.33229 11.1562 3.63001V15.51ZM18.018 10.8082C18.229 11.0192 18.229 11.3608 18.018 11.5718C17.9125 11.6773 17.7745 11.73 17.6362 11.73C17.498 11.73 17.3599 11.6773 17.2545 11.5718L16.0162 10.3336L14.778 11.5718C14.6725 11.6773 14.5345 11.73 14.3962 11.73C14.258 11.73 14.1199 11.6773 14.0145 11.5718C13.8035 11.3608 13.8035 11.0192 14.0145 10.8082L15.2527 9.57001L14.0145 8.33179C13.8035 8.12083 13.8035 7.77919 14.0145 7.56823C14.2254 7.35727 14.5671 7.35727 14.778 7.56823L16.0162 8.80645L17.2545 7.56823C17.4654 7.35727 17.8071 7.35727 18.018 7.56823C18.229 7.77919 18.229 8.12083 18.018 8.33179L16.7798 9.57001L18.018 10.8082Z" fill="white" fill-opacity="0.8"/>
</g>
<defs>
<clipPath id="clip0_217_1076">
<rect width="18" height="18" fill="white" transform="translate(0.536133 0.570068)"/>
</clipPath>
</defs>
</svg>
