<svg width="18" height="19" viewBox="0 0 18 19" fill="none" xmlns="http://www.w3.org/2000/svg">
<g id="Property 1=Volume on">
<path id="Silent" d="M10.0801 2.01001H9.88085C9.54605 2.01001 9.22475 2.11117 8.95169 2.30269L3.96983 5.79001H1.98011C1.08677 5.79001 0.360107 6.51667 0.360107 7.41001V11.73C0.360107 12.6233 1.08677 13.35 1.98011 13.35H3.96983L8.95097 16.8372C9.22475 17.0289 9.54587 17.13 9.88085 17.13H10.0801C10.9734 17.13 11.7001 16.4033 11.7001 15.51V3.63001C11.7001 2.73667 10.9734 2.01001 10.0801 2.01001ZM3.60011 12.27H1.98011C1.68221 12.27 1.44011 12.0277 1.44011 11.73V7.41001C1.44011 7.11229 1.68221 6.87001 1.98011 6.87001H3.60011V12.27ZM10.6201 15.51C10.6201 15.8077 10.378 16.05 10.0801 16.05H9.88085C9.76907 16.05 9.66197 16.0162 9.57071 15.9524L4.68011 12.5289V6.61117L9.57125 3.18739C9.66197 3.12385 9.76889 3.09001 9.88085 3.09001H10.0801C10.378 3.09001 10.6201 3.33229 10.6201 3.63001V15.51Z" fill="white" fill-opacity="0.8"/>
<path id="Vector" d="M14.0701 6.45067C13.8963 6.27952 13.6175 6.28217 13.4464 6.4542C13.2752 6.628 13.277 6.90678 13.4499 7.07881C14.1168 7.73694 14.4838 8.6218 14.4838 9.57019C14.4838 10.5186 14.1168 11.4034 13.4499 12.0616C13.277 12.2318 13.2752 12.5115 13.4464 12.6853C13.5328 12.7726 13.6466 12.8159 13.7595 12.8159C13.8716 12.8159 13.9836 12.7735 14.0701 12.6879C14.9064 11.8648 15.3661 10.7568 15.3661 9.57019C15.3661 8.38361 14.9064 7.27554 14.0701 6.45067Z" fill="white" fill-opacity="0.8"/>
<path id="Vector_2" d="M15.315 5.20763C15.1412 5.03559 14.8624 5.03736 14.6904 5.21027C14.5192 5.38319 14.521 5.66285 14.693 5.834C15.6961 6.82826 16.2484 8.15511 16.2484 9.57019C16.2484 10.9853 15.6961 12.3112 14.693 13.3055C14.521 13.4775 14.5192 13.7572 14.6904 13.9301C14.7777 14.0166 14.8906 14.0598 15.0036 14.0598C15.1156 14.0598 15.2285 14.0174 15.315 13.9319C16.4866 12.7718 17.1306 11.2226 17.1306 9.57019C17.1306 7.9178 16.4866 6.36862 15.315 5.20763Z" fill="white" fill-opacity="0.8"/>
</g>
</svg>
