<svg width="34" height="35" viewBox="0 0 34 35" fill="none" xmlns="http://www.w3.org/2000/svg">
<g id="whatsapp (1) 1">
<g clip-path="url(#clip0_285_7613)">
<g id="Group">
<path id="Vector" d="M34 0.985352H0V34.9854H34V0.985352Z" fill="#1BD741"/>
<g id="Group_2">
<path id="Vector_2" d="M6.65784 28.338L8.10645 23.193C7.1749 21.6105 6.68444 19.8099 6.68444 17.9602C6.68444 12.2648 11.3179 7.63135 17.0133 7.63135C22.7086 7.63135 27.3421 12.2648 27.3421 17.9602C27.3421 23.6555 22.7086 28.289 17.0133 28.289C15.2386 28.289 13.5009 27.8348 11.9637 26.9722L6.65784 28.338ZM12.2349 25.0931L12.5511 25.2862C13.8914 26.1044 15.4344 26.5369 17.0133 26.5369C21.7425 26.5369 25.5899 22.6894 25.5899 17.9602C25.5899 13.231 21.7425 9.38346 17.0133 9.38346C12.2841 9.38346 8.43656 13.231 8.43656 17.9602C8.43656 19.608 8.90489 21.2082 9.79081 22.5878L10.0037 22.9193L9.16952 25.8822L12.2349 25.0931Z" fill="white"/>
<path id="Vector_3" d="M14.1118 13.1532L13.4416 13.1167C13.2311 13.1052 13.0246 13.1756 12.8654 13.3138C12.5405 13.5959 12.021 14.1414 11.8614 14.8523C11.6235 15.9122 11.9912 17.21 12.943 18.5079C13.8948 19.8057 15.6685 21.8823 18.805 22.7692C19.8157 23.055 20.6108 22.8623 21.2242 22.4699C21.71 22.1592 22.045 21.6603 22.1657 21.0964L22.2727 20.5966C22.3067 20.4377 22.226 20.2765 22.0784 20.2085L19.8134 19.1645C19.6663 19.0967 19.4919 19.1396 19.393 19.2677L18.5038 20.4205C18.4366 20.5076 18.3217 20.5421 18.2178 20.5056C17.6089 20.2916 15.569 19.4373 14.4497 17.2813C14.4012 17.1878 14.4133 17.0743 14.4821 16.9945L15.332 16.0114C15.4188 15.911 15.4407 15.7698 15.3886 15.6478L14.4122 13.3635C14.3602 13.2419 14.2437 13.1604 14.1118 13.1532Z" fill="white"/>
</g>
</g>
</g>
</g>
<defs>
<clipPath id="clip0_285_7613">
<rect y="0.985352" width="34" height="34" rx="6.375" fill="white"/>
</clipPath>
</defs>
</svg>
