<svg width="32" height="33" viewBox="0 0 32 33" fill="none" xmlns="http://www.w3.org/2000/svg">
<g id="compass (1) 1" clip-path="url(#clip0_267_2775)">
<path id="Vector" d="M12.0166 0.839844C6.39893 2.28638 1.94824 6.73682 0.501709 12.3545L2.31812 12.8215C3.59351 7.86572 7.52783 3.9314 12.4834 2.65625L12.0166 0.839844Z" fill="black" fill-opacity="0.77"/>
<path id="Vector_2" d="M29.6819 12.8215L31.4983 12.3545C30.0518 6.73682 25.6011 2.28638 19.9834 0.839844L19.5166 2.65625C24.4724 3.9314 28.4065 7.86572 29.6819 12.8215Z" fill="black" fill-opacity="0.77"/>
<path id="Vector_3" d="M19.9834 31.8354C25.6011 30.3896 30.0518 25.9402 31.4983 20.3215L29.6819 19.8545C28.4065 24.8113 24.4722 28.7446 19.5164 30.019L19.9834 31.8354Z" fill="black" fill-opacity="0.77"/>
<path id="Vector_4" d="M2.31812 19.8545L0.501709 20.3215C1.94824 25.9402 6.39893 30.3899 12.0166 31.8354L12.4834 30.019C7.52759 28.7446 3.59351 24.8113 2.31812 19.8545Z" fill="black" fill-opacity="0.77"/>
<path id="Vector_5" d="M16 13.5254C14.4492 13.5254 13.1875 14.7871 13.1875 16.3379C13.1875 17.8889 14.4492 19.1504 16 19.1504C17.5508 19.1504 18.8125 17.8889 18.8125 16.3379C18.8125 14.7871 17.5508 13.5254 16 13.5254ZM16.9375 17.2754H15.0625V15.4004H16.9375V17.2754Z" fill="black" fill-opacity="0.77"/>
<path id="Vector_6" d="M16 0.338135L12.3992 12.7373L0 16.3379L12.3992 19.938L16 32.3381L19.6008 19.938L32 16.3379L19.6008 12.7373L16 0.338135ZM16 21.0254C13.4155 21.0254 11.3125 18.9226 11.3125 16.3379C11.3125 13.7534 13.4155 11.6504 16 11.6504C18.5845 11.6504 20.6875 13.7534 20.6875 16.3379C20.6875 18.9226 18.5845 21.0254 16 21.0254Z" fill="black" fill-opacity="0.77"/>
<path id="Vector_7" d="M23.0686 11.7969L25.5967 6.74146L20.541 9.2688L21.1123 11.2258L23.0686 11.7969Z" fill="black" fill-opacity="0.77"/>
<path id="Vector_8" d="M21.1123 21.4504L20.5413 23.407L25.5967 25.9346L23.0686 20.8794L21.1123 21.4504Z" fill="black" fill-opacity="0.77"/>
<path id="Vector_9" d="M8.9314 20.8794L6.40332 25.9346L11.4587 23.4067L10.8877 21.4504L8.9314 20.8794Z" fill="black" fill-opacity="0.77"/>
<path id="Vector_10" d="M10.8877 11.2258L11.459 9.2688L6.40332 6.74146L8.9314 11.7969L10.8877 11.2258Z" fill="black" fill-opacity="0.77"/>
</g>
<defs>
<clipPath id="clip0_267_2775">
<rect width="32" height="32" fill="white" transform="translate(0 0.338135)"/>
</clipPath>
</defs>
</svg>
